<?xml version="1.0" standalone="no"?><!DOCTYPE svg PUBLIC "-//W3C//DTD SVG 1.1//EN" "http://www.w3.org/Graphics/SVG/1.1/DTD/svg11.dtd"><svg t="1763192327811" class="icon" viewBox="0 0 1024 1024" version="1.1" xmlns="http://www.w3.org/2000/svg" p-id="3207" xmlns:xlink="http://www.w3.org/1999/xlink" width="200" height="200"><path d="M56.888889 56.888889h910.222222v910.222222H56.888889z" fill="#707070" fill-opacity="0" p-id="3208"></path><path d="M142.222222 853.333333h739.555556a28.444444 28.444444 0 1 1 0 56.888889h-739.555556a28.444444 28.444444 0 1 1 0-56.888889z m181.646222-116.053333l207.928889-88.064a29.240889 29.240889 0 0 0 8.988445-6.030222l350.72-350.776889c24.803556-24.803556 25.031111-65.251556 0.170666-90.055111l-69.973333-70.030222a63.772444 63.772444 0 0 0-90.112 0.170666L380.871111 483.271111a28.273778 28.273778 0 0 0-5.973333 8.988445l-88.177778 207.872a27.989333 27.989333 0 0 0 6.030222 31.004444 27.875556 27.875556 0 0 0 31.118222 6.087111z m452.437334-559.047111l0.170666-0.170667 70.542223 70.314667-0.170667 0.170667-55.182222 55.068444L721.009778 233.244444l55.182222-55.068444zM427.178667 525.994667l247.694222-247.523556L745.244444 348.785778l-247.694222 247.580444-122.083555 51.655111 51.768889-122.026666z" fill="#707070" p-id="3209"></path></svg>