<?xml version="1.0" standalone="no"?><!DOCTYPE svg PUBLIC "-//W3C//DTD SVG 1.1//EN" "http://www.w3.org/Graphics/SVG/1.1/DTD/svg11.dtd"><svg t="1763171730988" class="icon" viewBox="0 0 1024 1024" version="1.1" xmlns="http://www.w3.org/2000/svg" p-id="1591" width="200" height="200" xmlns:xlink="http://www.w3.org/1999/xlink"><path d="M659.53792 130.6624H522.6496a27.648 27.648 0 0 0-27.648 27.60704l-0.24576 265.46176 0.24576 236.21632c0.57344 40.46848-31.5392 79.6672-77.16864 79.6672-45.13792 0-77.824-38.66624-77.824-75.5712 0-24.576 9.95328-48.04608 32.768-65.24928 14.82752-11.264 38.0928-16.46592 80.11776-16.46592a27.648 27.648 0 0 0 27.648-27.68896v-121.11872a27.648 27.648 0 0 0-26.33728-27.648c-123.61728-5.9392-212.70528 39.7312-262.144 136.192-87.12192 169.94304 14.00832 381.25568 234.2912 381.25568 104.81664 0 176.5376-44.032 217.78432-118.04672l5.77536-10.97728a309.94432 309.94432 0 0 0 31.62112-131.23584v-205.74208l1.76128 0.94208c31.62112 16.67072 59.96544 27.4432 85.1968 32.19456l16.46592 2.99008 14.336 2.37568 6.43072 0.94208 11.38688 1.4336c8.72448 0.90112 15.48288 1.18784 20.56192 0.77824a27.648 27.648 0 0 0 25.47712-27.56608V346.84928a27.648 27.648 0 0 0-24.33024-27.4432c-27.27936-3.2768-50.46272-9.46176-69.55008-18.35008-45.2608-21.01248-82.04288-57.5488-82.04288-94.69952V158.26944a27.648 27.648 0 0 0-27.648-27.60704z m-109.32224 55.296h81.7152v20.19328c0 64.96256 51.2 115.9168 113.99168 145.03936l10.8544 4.7104c14.7456 5.9392 30.88384 10.6496 48.29184 14.09024l2.74432 0.49152v70.656l-8.8064-1.39264-13.1072-2.29376-7.24992-1.35168c-28.4672-5.3248-65.37216-22.03648-109.9776-50.29888a27.648 27.648 0 0 0-42.43456 23.3472v253.37856c-0.69632 34.89792-9.29792 77.824-30.47424 115.83488-31.66208 56.85248-85.11488 89.66144-169.45152 89.66144-175.59552 0-254.60736-165.0688-185.05728-300.76928l4.25984-7.9872c35.2256-62.6688 92.16-95.27296 174.08-98.34496l5.57056-0.16384v67.09248l-1.92512 0.12288c-36.70016 2.58048-62.75072 10.73152-83.88608 26.70592a134.18496 134.18496 0 0 0-54.6816 109.3632c0 65.536 55.21408 130.8672 133.12 130.8672 76.43136 0 129.88416-62.2592 132.38272-129.024l-0.16384-86.4256 0.2048-393.50272z" p-id="1592" fill="#707070"></path></svg>